<svg width="42" height="58" viewBox="0 0 42 58" fill="none" xmlns="http://www.w3.org/2000/svg">
<path d="M0.540882 1.9147C1.55883 0.985517 16.3145 13.8717 18.8912 13.355C21.7042 12.7929 33.6242 -0.591826 34.7194 0.210444C35.8646 1.05351 21.8723 22.2207 23.1357 24.2785C24.399 26.3363 40.6862 19.6462 41.2588 20.6751C42.0177 22.0349 27.4392 30.3975 27.8391 33.7154C28.3708 38.1165 41.8904 49.2169 41.2724 50.418C40.818 51.2973 27.2166 42.5721 24.9171 43.7823C21.7633 45.4412 23.7628 56.7546 22.4495 57.167C21.3588 57.5115 19.0094 47.5579 17.1734 46.7557C15.3375 45.9534 2.26321 54.248 1.91783 53.2781C1.47248 52.0135 18.4913 39.3222 17.287 36.5755C16.1464 33.9737 0.713568 38.4066 0.54088 37.3777C0.331835 36.1267 15.4511 28.2264 15.3375 24.9086C15.2239 21.5907 -0.836075 3.17023 0.540882 1.9147Z" fill="#27B769"/>
</svg>
