<svg width="140" height="144" viewBox="0 0 140 144" fill="none" xmlns="http://www.w3.org/2000/svg">
<path d="M114.911 15.7959L101.878 50.9524L139.378 53.0606L108.127 73.8565L137.223 97.5609L99.6942 96.0523L109.274 132.299L79.8001 109.063L66.2032 144.006L56.0437 107.918L24.4661 128.21L37.4999 93.054L0 90.9458L31.2489 70.1499L2.15416 46.4455L39.6813 47.9541L30.1038 11.707L59.5753 34.9433L73.1723 0L83.3318 36.0883L114.911 15.7959Z" fill="#4A9AC4"/>
<path d="M37.6406 84.8819C37.3706 85.2059 36.7226 85.1249 36.6416 84.7469C36.2906 80.2919 36.1016 77.9699 35.8856 75.9989C35.7506 74.7029 35.0756 73.9739 33.9956 73.9739H30.6746L31.2686 77.1599C31.4576 78.1319 31.5656 78.9419 31.5656 79.6439C31.5656 80.4539 31.1066 81.9659 30.3776 83.6669C30.0806 84.3419 29.7836 84.5039 28.8926 84.5039H23.7896C23.4116 84.5039 23.2226 84.2879 23.2766 83.9369C23.8436 82.6679 24.3836 81.5609 24.9776 80.4809C25.3556 79.7789 25.5986 79.6439 26.3546 79.6439H27.6506C27.9206 79.6439 28.0556 79.4549 28.0016 79.1579C27.8126 77.8889 27.0566 75.2969 26.5436 74.1089C26.5166 74.0279 26.4086 73.9739 26.3276 73.9739H24.1946C23.7356 73.9739 23.4656 73.7309 23.4656 73.2719C23.4656 72.7319 26.1656 68.1959 27.1376 67.1159C27.2726 66.9539 27.6236 66.9539 27.7316 67.1159C27.8126 67.2239 27.9206 67.7639 28.0286 68.1419C28.1906 68.7359 28.2986 68.8439 28.6766 68.8439H35.1296C38.1806 68.8439 39.0716 69.8699 39.4226 73.7579C39.6386 76.7009 39.7466 78.4559 39.7736 79.8599C39.8006 80.9939 39.8276 81.3989 39.3686 82.2899C38.8826 83.1539 38.3696 83.9369 37.6406 84.8819ZM50.9803 85.0439C50.7103 85.2059 50.2783 85.0979 50.2243 84.8549C50.2783 81.8039 50.2513 79.8059 50.1433 77.7269C50.0083 75.2159 48.7933 73.9739 46.4983 73.9739H41.9353C41.4763 73.9739 41.2063 73.7309 41.2063 73.2719C41.2063 72.7319 43.9062 68.1959 44.8783 67.1159C45.0133 66.9539 45.3643 66.9539 45.4723 67.1159C45.5533 67.2239 45.6613 67.7639 45.7693 68.1419C45.9313 68.7359 46.0393 68.8439 46.4173 68.8439H48.5503C52.3573 68.8439 53.6263 70.6259 53.6533 76.0259C53.6533 77.2139 53.6533 77.9969 53.5993 79.9949C53.5453 81.3719 53.3293 82.0739 52.7083 83.0459C52.3033 83.6669 51.4393 84.6659 50.9803 85.0439ZM59.5542 85.0979C59.3382 85.2329 59.0412 85.1249 58.9872 84.9089C58.8792 83.4779 58.8792 79.4549 58.7982 77.8889C58.6632 75.6479 58.3662 74.9459 57.0432 73.8119C56.6922 73.4879 56.2062 73.1369 55.4772 72.5969C55.1802 72.3809 55.0722 72.1919 55.0722 71.8409C55.0722 71.3009 56.9082 68.1149 57.5292 67.5479C57.6912 67.4129 57.9072 67.3859 58.0962 67.4669C58.3662 67.5749 59.2572 68.2769 59.6622 68.7089C61.3092 70.3559 61.8762 71.5439 62.1462 73.8929C62.2812 75.0809 62.3082 75.9449 62.3082 79.0499C62.3082 80.8859 62.0382 81.9119 61.2552 83.0189C60.3912 84.2339 59.7972 84.9629 59.5542 85.0979ZM70.1988 85.1789C69.1188 85.1789 68.4438 84.5849 68.0658 83.3429C67.7418 82.2629 67.2558 80.6699 66.8508 79.2119C66.1218 76.4849 65.6358 75.2429 63.9348 71.8139C63.7188 71.3549 63.7458 71.0849 64.0428 70.6259C64.7718 69.4919 66.2568 67.7369 66.5808 67.6289C66.7428 67.5749 66.9588 67.6019 67.0668 67.6829C67.4718 68.0069 68.4978 71.4089 69.5778 75.9719C70.6578 75.1889 71.1168 74.5679 71.1168 73.7579C71.1168 73.2989 70.9818 72.7859 70.7118 72.1379C70.4148 71.5979 70.4148 71.1119 70.6578 70.6799C71.1168 69.8699 72.1158 68.4929 72.8718 67.6829C72.9798 67.5749 73.2768 67.5479 73.4118 67.6289C74.0058 68.2229 74.6538 70.1939 74.6538 71.4359C74.6538 74.1629 73.3578 76.0529 70.0638 78.1049L70.3338 79.3739C70.4688 79.9139 70.8468 80.2109 71.3598 80.2109C72.0888 80.2109 74.1948 79.3199 75.2478 78.5909C76.3548 77.8349 76.9758 76.9979 76.9758 75.6209C76.9758 74.6759 76.8138 73.5419 76.3818 71.9759C76.2468 71.4629 76.2738 71.2739 76.5708 70.7879C77.2998 69.5729 78.8388 67.6829 79.1628 67.6019C79.2978 67.5479 79.5408 67.5749 79.6218 67.6559C80.1888 68.3849 80.6478 70.8149 80.6478 73.1369C80.6478 75.4859 79.7838 78.2939 78.4068 80.4809C76.8678 82.9379 72.9528 85.1789 70.1988 85.1789ZM88.6621 84.6659C88.2571 84.7199 87.9601 84.5039 87.9871 84.1799C88.0681 83.5049 88.8241 81.0209 89.2291 80.1029C89.4181 79.6439 89.5261 79.5359 90.0931 79.3469C92.1991 78.5909 93.1981 78.4829 93.7111 76.5119C93.8191 76.0799 93.8731 75.5939 93.8731 75.0809C93.8731 74.1899 93.5761 73.9739 92.4151 73.9739H82.9381C82.4791 73.9739 82.2091 73.7309 82.2091 73.2719C82.2091 72.7319 84.9091 68.1959 85.8811 67.1159C86.0161 66.9539 86.3671 66.9539 86.4751 67.1159C86.5561 67.2239 86.6641 67.7639 86.7721 68.1419C86.9341 68.7359 87.0421 68.8439 87.4201 68.8439H95.5471C97.0321 68.8439 97.8151 69.5999 97.8151 71.0309C97.8151 72.6239 97.1401 75.8639 96.4111 77.7809C95.0881 81.2369 92.9551 83.1539 88.6621 84.6659ZM84.5581 90.3899C84.3691 90.5789 83.9911 90.4979 83.9371 90.2549C83.8021 82.9379 83.7481 79.0499 83.7751 78.8609C83.8021 78.3209 83.9371 77.8619 84.1801 77.4839C84.8821 76.4309 85.4761 75.6749 86.2051 74.9189C86.3941 74.7299 86.8531 74.8379 86.9071 75.0539C87.0421 76.4849 87.0961 85.4759 86.9881 86.3669C86.9071 87.0959 86.7991 87.5009 86.4751 88.0409C85.9621 88.8509 85.3681 89.5799 84.5581 90.3899ZM113.262 84.8819C112.992 85.2059 112.344 85.1249 112.263 84.7469C111.912 80.2919 111.723 77.9699 111.507 75.9989C111.372 74.7029 110.697 73.9739 109.617 73.9739H106.296L106.89 77.1599C107.079 78.1319 107.187 78.9419 107.187 79.6439C107.187 80.4539 106.728 81.9659 105.999 83.6669C105.702 84.3419 105.405 84.5039 104.514 84.5039H99.4107C99.0327 84.5039 98.8437 84.2879 98.8977 83.9369C99.4647 82.6679 100.005 81.5609 100.599 80.4809C100.977 79.7789 101.22 79.6439 101.976 79.6439H103.272C103.542 79.6439 103.677 79.4549 103.623 79.1579C103.434 77.8889 102.678 75.2969 102.165 74.1089C102.138 74.0279 102.03 73.9739 101.949 73.9739H99.8157C99.3567 73.9739 99.0867 73.7309 99.0867 73.2719C99.0867 72.7319 101.787 68.1959 102.759 67.1159C102.894 66.9539 103.245 66.9539 103.353 67.1159C103.434 67.2239 103.542 67.7639 103.65 68.1419C103.812 68.7359 103.92 68.8439 104.298 68.8439H110.751C113.802 68.8439 114.693 69.8699 115.044 73.7579C115.26 76.7009 115.368 78.4559 115.395 79.8599C115.422 80.9939 115.449 81.3989 114.99 82.2899C114.504 83.1539 113.991 83.9369 113.262 84.8819Z" fill="black"/>
</svg>
