<svg width="140" height="144" viewBox="0 0 140 144" fill="none" xmlns="http://www.w3.org/2000/svg">
<path d="M114.911 15.7959L101.878 50.9524L139.378 53.0606L108.127 73.8565L137.223 97.5609L99.6942 96.0523L109.274 132.299L79.8001 109.063L66.2032 144.006L56.0437 107.918L24.4661 128.21L37.4999 93.054L0 90.9458L31.2489 70.1499L2.15416 46.4455L39.6813 47.9541L30.1038 11.707L59.5753 34.9433L73.1723 0L83.3318 36.0883L114.911 15.7959Z" fill="#EDCE01"/>
<path d="M37.6406 84.8814C37.3706 85.2054 36.7226 85.1244 36.6416 84.7464C36.2906 80.2914 36.1016 77.9694 35.8856 75.9984C35.7506 74.7024 35.0756 73.9734 33.9956 73.9734H30.6746L31.2686 77.1594C31.4576 78.1314 31.5656 78.9414 31.5656 79.6434C31.5656 80.4534 31.1066 81.9654 30.3776 83.6664C30.0806 84.3414 29.7836 84.5034 28.8926 84.5034H23.7896C23.4116 84.5034 23.2226 84.2874 23.2766 83.9364C23.8436 82.6674 24.3836 81.5604 24.9776 80.4804C25.3556 79.7784 25.5986 79.6434 26.3546 79.6434H27.6506C27.9206 79.6434 28.0556 79.4544 28.0016 79.1574C27.8126 77.8884 27.0566 75.2964 26.5436 74.1084C26.5166 74.0274 26.4086 73.9734 26.3276 73.9734H24.1946C23.7356 73.9734 23.4656 73.7304 23.4656 73.2714C23.4656 72.7314 26.1656 68.1954 27.1376 67.1154C27.2726 66.9534 27.6236 66.9534 27.7316 67.1154C27.8126 67.2234 27.9206 67.7634 28.0286 68.1414C28.1906 68.7354 28.2986 68.8434 28.6766 68.8434H35.1296C38.1806 68.8434 39.0716 69.8694 39.4226 73.7574C39.6386 76.7004 39.7466 78.4554 39.7736 79.8594C39.8006 80.9934 39.8276 81.3984 39.3686 82.2894C38.8826 83.1534 38.3696 83.9364 37.6406 84.8814ZM50.9803 85.0434C50.7103 85.2054 50.2783 85.0974 50.2243 84.8544C50.2783 81.8034 50.2513 79.8054 50.1433 77.7264C50.0083 75.2154 48.7933 73.9734 46.4983 73.9734H41.9353C41.4763 73.9734 41.2063 73.7304 41.2063 73.2714C41.2063 72.7314 43.9062 68.1954 44.8783 67.1154C45.0133 66.9534 45.3643 66.9534 45.4723 67.1154C45.5533 67.2234 45.6613 67.7634 45.7693 68.1414C45.9313 68.7354 46.0393 68.8434 46.4173 68.8434H48.5503C52.3573 68.8434 53.6263 70.6254 53.6533 76.0254C53.6533 77.2134 53.6533 77.9964 53.5993 79.9944C53.5453 81.3714 53.3293 82.0734 52.7083 83.0454C52.3033 83.6664 51.4393 84.6654 50.9803 85.0434ZM59.5542 85.0974C59.3382 85.2324 59.0412 85.1244 58.9872 84.9084C58.8792 83.4774 58.8792 79.4544 58.7982 77.8884C58.6632 75.6474 58.3662 74.9454 57.0432 73.8114C56.6922 73.4874 56.2062 73.1364 55.4772 72.5964C55.1802 72.3804 55.0722 72.1914 55.0722 71.8404C55.0722 71.3004 56.9082 68.1144 57.5292 67.5474C57.6912 67.4124 57.9072 67.3854 58.0962 67.4664C58.3662 67.5744 59.2572 68.2764 59.6622 68.7084C61.3092 70.3554 61.8762 71.5434 62.1462 73.8924C62.2812 75.0804 62.3082 75.9444 62.3082 79.0494C62.3082 80.8854 62.0382 81.9114 61.2552 83.0184C60.3912 84.2334 59.7972 84.9624 59.5542 85.0974ZM70.1988 85.1784C69.1188 85.1784 68.4438 84.5844 68.0658 83.3424C67.7418 82.2624 67.2558 80.6694 66.8508 79.2114C66.1218 76.4844 65.6358 75.2424 63.9348 71.8134C63.7188 71.3544 63.7458 71.0844 64.0428 70.6254C64.7718 69.4914 66.2568 67.7364 66.5808 67.6284C66.7428 67.5744 66.9588 67.6014 67.0668 67.6824C67.4718 68.0064 68.4978 71.4084 69.5778 75.9714C70.6578 75.1884 71.1168 74.5674 71.1168 73.7574C71.1168 73.2984 70.9818 72.7854 70.7118 72.1374C70.4148 71.5974 70.4148 71.1114 70.6578 70.6794C71.1168 69.8694 72.1158 68.4924 72.8718 67.6824C72.9798 67.5744 73.2768 67.5474 73.4118 67.6284C74.0058 68.2224 74.6538 70.1934 74.6538 71.4354C74.6538 74.1624 73.3578 76.0524 70.0638 78.1044L70.3338 79.3734C70.4688 79.9134 70.8468 80.2104 71.3598 80.2104C72.0888 80.2104 74.1948 79.3194 75.2478 78.5904C76.3548 77.8344 76.9758 76.9974 76.9758 75.6204C76.9758 74.6754 76.8138 73.5414 76.3818 71.9754C76.2468 71.4624 76.2738 71.2734 76.5708 70.7874C77.2998 69.5724 78.8388 67.6824 79.1628 67.6014C79.2978 67.5474 79.5408 67.5744 79.6218 67.6554C80.1888 68.3844 80.6478 70.8144 80.6478 73.1364C80.6478 75.4854 79.7838 78.2934 78.4068 80.4804C76.8678 82.9374 72.9528 85.1784 70.1988 85.1784ZM88.6621 84.6654C88.2571 84.7194 87.9601 84.5034 87.9871 84.1794C88.0681 83.5044 88.8241 81.0204 89.2291 80.1024C89.4181 79.6434 89.5261 79.5354 90.0931 79.3464C92.1991 78.5904 93.1981 78.4824 93.7111 76.5114C93.8191 76.0794 93.8731 75.5934 93.8731 75.0804C93.8731 74.1894 93.5761 73.9734 92.4151 73.9734H82.9381C82.4791 73.9734 82.2091 73.7304 82.2091 73.2714C82.2091 72.7314 84.9091 68.1954 85.8811 67.1154C86.0161 66.9534 86.3671 66.9534 86.4751 67.1154C86.5561 67.2234 86.6641 67.7634 86.7721 68.1414C86.9341 68.7354 87.0421 68.8434 87.4201 68.8434H95.5471C97.0321 68.8434 97.8151 69.5994 97.8151 71.0304C97.8151 72.6234 97.1401 75.8634 96.4111 77.7804C95.0881 81.2364 92.9551 83.1534 88.6621 84.6654ZM84.5581 90.3894C84.3691 90.5784 83.9911 90.4974 83.9371 90.2544C83.8021 82.9374 83.7481 79.0494 83.7751 78.8604C83.8021 78.3204 83.9371 77.8614 84.1801 77.4834C84.8821 76.4304 85.4761 75.6744 86.2051 74.9184C86.3941 74.7294 86.8531 74.8374 86.9071 75.0534C87.0421 76.4844 87.0961 85.4754 86.9881 86.3664C86.9071 87.0954 86.7991 87.5004 86.4751 88.0404C85.9621 88.8504 85.3681 89.5794 84.5581 90.3894ZM113.262 84.8814C112.992 85.2054 112.344 85.1244 112.263 84.7464C111.912 80.2914 111.723 77.9694 111.507 75.9984C111.372 74.7024 110.697 73.9734 109.617 73.9734H106.296L106.89 77.1594C107.079 78.1314 107.187 78.9414 107.187 79.6434C107.187 80.4534 106.728 81.9654 105.999 83.6664C105.702 84.3414 105.405 84.5034 104.514 84.5034H99.4107C99.0327 84.5034 98.8437 84.2874 98.8977 83.9364C99.4647 82.6674 100.005 81.5604 100.599 80.4804C100.977 79.7784 101.22 79.6434 101.976 79.6434H103.272C103.542 79.6434 103.677 79.4544 103.623 79.1574C103.434 77.8884 102.678 75.2964 102.165 74.1084C102.138 74.0274 102.03 73.9734 101.949 73.9734H99.8157C99.3567 73.9734 99.0867 73.7304 99.0867 73.2714C99.0867 72.7314 101.787 68.1954 102.759 67.1154C102.894 66.9534 103.245 66.9534 103.353 67.1154C103.434 67.2234 103.542 67.7634 103.65 68.1414C103.812 68.7354 103.92 68.8434 104.298 68.8434H110.751C113.802 68.8434 114.693 69.8694 115.044 73.7574C115.26 76.7004 115.368 78.4554 115.395 79.8594C115.422 80.9934 115.449 81.3984 114.99 82.2894C114.504 83.1534 113.991 83.9364 113.262 84.8814Z" fill="black"/>
</svg>
