<svg xmlns="http://www.w3.org/2000/svg" width="126" height="90" viewBox="0 0 126 90">
    <path
        d="M125.17,13.2c-1.23-1.45-30.92,15.09-38.68,12.32-6.11-2.18,2.59-24.76,0-25.5s-13.67,20.51-21.8,22.17C55.49,24.07,15.87-.56,15.17,2.24c-.55,2.22,29.73,31.18,27.16,35.85C40.3,41.78.75,31.06.02,33.28s25.09,12.84,29.01,21.99c2.77,6.47-17.55,31.78-16.44,33.81,2.39,4.38,58.7-43.4,63.93-39.91,6.1,4.07-8.87,38.99-6.28,39.99,3.16,1.22,21.8-30.2,27.9-30.56,8.43-.51,24.76,17.92,26.42,16.08,1.93-2.15-19.59-27.59-17.86-35.05,1.9-8.23,19.83-24.82,18.48-26.42Z"
        fill="whitesmoke" />
</svg>