<svg width="57" height="36" viewBox="0 0 57 36" fill="none" xmlns="http://www.w3.org/2000/svg">
<path d="M56.1004 6.78655L50.8228 22.1698L41.7774 27.3913L43.9657 19.8631L50.6759 16.7526L51.0915 13.0322L49.1293 10.9497L34.4834 11.4608L33.4453 10.3607L39.3532 0.293884H41.0524L39.4923 4.31641H54.1614L56.1004 6.78655Z" fill="whitesmoke"/>
<path d="M26.4723 2.06482L22.0781 8.08626L26.8125 12.9505L26.1881 27.9709L31.9993 22.4283L31.1815 8.83111L26.4723 2.06482Z" fill="whitesmoke"/>
<path d="M20.8769 29.3902L16.0845 35.2939L11.8353 19.9809L7.14152 12.713L0.976562 8.03683L5.20059 0.293884H6.78194L5.89461 2.90463L10.8958 8.78547L14.8453 15.7L15.8911 13.0303L12.4829 7.19698L16.7456 2.06479L20.3974 9.63292L15.6592 16.9825L20.8769 29.3902Z" fill="whitesmoke"/>
<path d="M39.4183 12.713L35.1479 17.0813L35.0938 35.2938L40.5183 29.7645L39.4183 12.713Z" fill="whitesmoke"/>
</svg>
