<?xml version="1.0" encoding="UTF-8"?><svg id="Layer_2" xmlns="http://www.w3.org/2000/svg" viewBox="0 0 135.35 88.19"><defs><style>.cls-1{fill:#1d1d1b;stroke-width:0px;}</style></defs><g id="Layer_1-2"><path class="cls-1" d="M.01,41.51c-.91,3.4,45.15,15.67,45.15,19.49,0,5.54-38.27,24.07-37.13,26.75,1.63,3.8,67.14-26.71,70.69-23.12,1.83,1.86-9.26,23.25-7.26,23.39,2.67.18,14.33-16.32,20.45-17.08,5.13-.64,31.52,19.14,33.04,17.11,1.53-2.02-14.14-13.29-12.61-19.98.89-3.92,23.98-16.43,22.97-18.34s-30.56,7.19-33.92,1.88c-3.63-5.73,31.29-49.13,29.48-51.55-1.15-1.53-33.25,30.11-43.75,33.05C82.35,34.44,2.2-1.06.97,2.35,0,5.02,61.72,38.26,60.76,42.85,59.6,48.43.78,38.64.01,41.51Z"/></g></svg>