<svg width="190" height="144" viewBox="0 0 190 144" fill="none" xmlns="http://www.w3.org/2000/svg">
    <path
        d="M0.586918 142.891C3.20957 146.502 67.4266 91.3288 83.2386 91.3288C99.0505 91.3288 119.367 141.749 125.695 143.003C132.024 144.256 122.977 91.7778 130.218 91.3288C137.459 90.8798 186.225 144.462 189.38 143.022C192.535 141.581 152.34 84.2194 154.601 81.1137C156.863 78.008 189.722 81.5627 189.551 77.559C189.38 73.5553 148.729 65.1175 147.836 55.7818C146.942 46.446 183.051 3.32178 178.091 0.216088C173.131 -2.8896 131.568 41.5629 123.453 39.7856C115.338 38.0082 109.446 11.7782 105.835 11.7782C102.224 11.7782 103.574 34.4535 100.875 34.9025C98.1763 35.3516 73.7742 6.89521 70.6194 7.77453C67.4646 8.65385 86.8685 40.2346 81.4521 42.0119C76.0358 43.7893 25.2171 9.83251 23.2026 12.6763C20.0478 17.129 54.8075 39.8043 53.9142 59.3552C53.021 78.9061 -1.63664 139.822 0.624929 142.928L0.586918 142.891Z"
        fill="#3C3C3C" />
</svg>