<svg width="250" height="144" xmlns="http://www.w3.org/2000/svg" viewBox="-50 10 180 70"><path d="M.05,96.16c1.74,2.43,44.29-34.71,54.76-34.71s23.94,33.94,28.13,34.77c4.19.83-1.8-34.48,2.99-34.77,4.79-.3,37.1,35.77,39.2,34.79s-24.54-39.58-23.04-41.67,23.28.3,23.16-2.39-27.05-8.38-27.65-14.66c-.6-6.28,23.34-35.31,20.05-37.4-3.29-2.09-30.82,27.83-36.21,26.63s-9.28-18.85-11.67-18.85-1.5,15.26-3.29,15.56c-1.8.3-17.95-18.85-20.05-18.25s10.77,21.84,7.18,23.04S16.35,6.57,15.01,8.48c-2.09,2.99,20.95,18.25,20.35,31.42C34.76,53.07-1.45,94.06.05,96.16Z" fill="whitesmoke"/></svg>