<?xml version="1.0" encoding="UTF-8"?><svg id="Layer_2" xmlns="http://www.w3.org/2000/svg" viewBox="0 0 124.59 83.77"><defs><style>.cls-1{fill:#1d1d1b;stroke-width:0px;}</style></defs><g id="Layer_1-2"><path class="cls-1" d="M.91,30.84c.05,2.86,40.35,9.15,40.95,13.19C42.56,48.86-.82,74.22.01,76.6c.75,2.16,51.35-19.37,58.24-18.54,5.84.7,29.24,26.86,30.9,25.67,1.32-.94-9.73-21.74-7.25-24.84,2.85-3.57,41.86,8.67,42.67,6.54.95-2.5-51.79-22.83-51.35-29.48.48-7.13,51.23-31.45,49.68-33.99C121.73,0,74.66,19.31,69.19,17.17c-5.47-2.14-4.75-14.86-6.9-15.45-2.3-.64-8.9,16.38-14.74,19.25C44.66,22.4,25.64-1.23,23.07.05c-1.9.95,13.45,24.67,11.41,27.1-2.81,3.35-33.6,2.26-33.58,3.69Z"/></g></svg>