<?xml version="1.0" encoding="UTF-8"?><svg id="Layer_2" xmlns="http://www.w3.org/2000/svg" viewBox="0 0 125.76 89.86"><defs><style>.cls-1{fill:#1d1d1b;stroke-width:0px;}</style></defs><g id="Layer_1-2"><path class="cls-1" d="M3.83,89.67c-2.05-2.24,26.38-34.71,25.24-40.38C27.84,43.1-1.7,16.87.08,14.46c1.86-2.52,48.56,28.27,53.1,25.49S42.95,1.33,45.23.07c3-1.67,21.45,30.41,28.77,29.53C83.71,28.43,108.2-1.32,110.85.05c1.94,1-17.31,30.93-14.64,35.99,3.66,6.94,28.62,2.54,29.53,5.43.76,2.4-21.2,7.57-22.97,11.61s16.53,32.81,14.39,33.57c-2.79.98-30.79-36.47-36.85-33.82-5.74,2.51,4.04,36.47,1.77,36.85-2.76.46-20.19-32.81-27.51-32.56-7.32.25-47.96,35.59-50.73,32.56Z"/></g></svg>