<?xml version="1.0" encoding="UTF-8"?><svg id="Layer_2" xmlns="http://www.w3.org/2000/svg" viewBox="0 0 124.59 84.97"><defs><style>.cls-1{fill:#1d1d1b;stroke-width:0px;}</style></defs><g id="Layer_1-2"><path class="cls-1" d="M1.02,84.9c2.28,1.72,25.08-29.65,32.66-29.87,6.21-.18,33.89,29.46,35.67,28.04s-20.77-35.59-16.15-40.64c4.61-5.05,68.51,38.69,69.93,37.27,1.42-1.42-26.08-26.28-25.58-33.84.55-8.22,28.42-29.34,27-31.3s-40.11,17.93-44.72,12.25c-3.99-4.9,17.32-24.56,15.26-26.62-1.77-1.77-28.23,20.21-36.28,19.48C51.42,19.01,35.45-.11,32.96,0c-1.83.08,8.34,20.07,2.31,23.8C30.14,26.97,2.26,1.44.13,2.97c-1.97,1.42,19.35,24.73,19.88,36.44.52,11.55-20.94,44.01-18.99,45.48Z"/></g></svg>