<svg xmlns="http://www.w3.org/2000/svg" viewBox="0 0 126 90">
    <path
        d="M101.73,81.64c-2.4,1.36-22.04-27.97-28.92-28.21s-38.07,29.65-40.53,28.29c-2.19-1.21,24.09-31.79,20.83-34.9S5.82,69.4,4.55,67.66c-1.15-1.57,23.47-21.63,23.47-27.73C28.01,32.51-1.29,14.47.04,12.43c1.56-2.39,47.29,15.2,50.8,12.09,2-1.77-11.91-23-9.08-24.41,1.48-.74,27.26,22.51,34.61,22.51C90.53,22.61,122.59-1.59,124.49.08c1.9,1.68-22.76,23.1-22.52,27.28.3,5.32,22.62,12.18,22.62,14.7,0,1.93-31.57-1.54-34.06,2.55-2.47,4.05,12.86,36.09,11.2,37.04Z"
        fill="whitesmoke" />
</svg>