<?xml version="1.0" encoding="UTF-8"?><svg id="Layer_2" xmlns="http://www.w3.org/2000/svg" viewBox="0 0 134.41 87.02"><defs><style>.cls-1{fill:#1d1d1b;stroke-width:0px;}</style></defs><g id="Layer_1-2"><path class="cls-1" d="M16.24,86.91c2.14,2.11,35.94-27.5,44.04-27.56,6.78-.05,35.15,28.66,37.29,27.18,2.14-1.47-20.3-31.3-16.27-35.11,4.03-3.81,49.91,24.13,51.29,22.31s-24.71-21.44-24.88-27.66c-.18-6.58,28.56-30.7,26.61-32.46s-40.49,22.79-45.37,18.8c-4.47-3.65,7.25-31.15,4.83-32.24-2.24-1-18.78,24.4-25.85,24.61S28.17-1.03,25.91.03c-1.96.92,24.61,27.49,20.78,31.2C43.27,34.55,1.04,20.18.02,22.26s41.5,16.29,42.31,24.78c.86,8.59-27.69,38.3-26.09,39.87Z"/></g></svg>