<?xml version="1.0" encoding="UTF-8"?><svg id="Layer_2" xmlns="http://www.w3.org/2000/svg" viewBox="0 0 135.08 89.68"><defs><style>.cls-1{fill:#1d1d1b;stroke-width:0px;}</style></defs><g id="Layer_1-2"><path class="cls-1" d="M18.04,88.16c1.92,1.75,37.19-25.95,43.76-25.4,5.38.45,22.68,27.5,25.25,26.91,2.57-.59-9.3-29.05-6.26-31.07,3.72-2.45,50.62,21.16,51.93,18.41,1.34-2.83-32.71-28.92-33.28-35.96-.57-7.01,37.9-33.82,35.54-35.43s-49.23,26.94-54.64,25.08c-4.35-1.5-1.19-30.71-4.09-30.71s-11.01,27.37-15.79,28.75C55.67,30.14,12.83-.3,11.29,1.47s36.04,33.46,33.95,36.59C43.16,41.2.55,33.19,0,35.53c-.49,2.12,44.33,12.11,44.8,18.23.41,5.4-28.27,33.01-26.76,34.4Z"/></g></svg>