<svg xmlns="http://www.w3.org/2000/svg" viewBox="0 0 126 90">
    <path
        d="M124.46,66.57c.84-2.09-16.12-15.77-17.04-19.95-.93-4.17,18.45-36.18,17.11-38.04-1.34-1.86-26.85,24.12-31.26,23.19C88.86,30.85,71.47.47,67.29,0s-18.96,33.17-23.37,34.09C39.52,35.03,1.69,6.16.03,9.28c-.99,1.86,21.65,25.03,21.65,29.21,0,2.9-20.95,16.02-20.02,18.11.93,2.09,20.18-6.73,21.8-3.94S3.05,79.79,4.67,81.64s49.24-35.75,54.04-33.59c3.48,1.57-3.65,33.88-1.85,33.66,2.34-.29,21.54-30.64,24.58-30.45,3.71.23,5.57,29.46,7.65,29.46s9.34-21.22,12.58-22.61,21.92,10.61,22.78,8.47Z"
        fill="whitesmoke" />
</svg>