<svg xmlns="http://www.w3.org/2000/svg" viewBox="0 0 126 90">
    <path
        d="M.03,27.44c-1.05,1.65,24.67,17.05,24.43,24.43-.18,5.69-22.04,34.35-20.21,35.45,1.84,1.1,27.37-26.82,32.15-25.9,3.65.7,11.02,27.35,13.59,27.54s-.59-31.46,2.2-33.24c4.04-2.57,69.81,33.24,71.09,30.13,1.35-3.27-40.78-39.99-40.97-49.05C82.15,27.81,127.89,1.73,125.69.07c-2.2-1.65-56.05,25.4-61.72,23.75C60.28,22.75,65.84,0,62.88,0s-13.98,25.61-17.84,27.08C41.18,28.55,7.2,1.23,6.09,2.77s29.22,30.92,26.45,33.68C29.79,39.2,1.32,25.42.03,27.44Z"
        fill="whitesmoke" />
</svg>