<svg width="250" height="144" xmlns="http://www.w3.org/2000/svg" viewBox="-50 10 180 70"><path d="M34.62,89.34c1.92,2.63,48.97-24.93,57.69-24.8,7.45.11,36.67,27.69,39.23,26.15,2.56-1.54-19.74-26.15-16.41-28.46,3.33-2.31,27.6,6.67,28.93,4.36,1.33-2.31-23.03-15.64-24.05-20.26-1.03-4.62,28.72-32.31,26.15-33.85s-41.03,28.72-46.15,26.67c-5.13-2.05-4.87-38.97-7.69-38.97s-7.44,29.49-13.33,30.77C73.08,32.23,19.62-1.96,17.57.09s44.23,36.5,42.95,40.09C59.23,43.77-.26,42.72,0,45.42s68.08,6.17,69.23,10.78c1.26,5.04-35.82,31.49-34.62,33.14Z" fill="whitesmoke"/></svg>