<svg xmlns="http://www.w3.org/2000/svg" viewBox="0 0 126 90">
    <path
        d="M4.29,7.9c.66-2.23,46.24,17.66,49.95,16.26C57.96,22.77,49.59.23,52.15,0c2.56-.23,17.66,28.81,22.54,29.28,4.88.46,23.93-28.81,27.18-27.88s-12.55,29.51-9.06,30.9c3.49,1.39,31.37-16.5,32.76-14.64,1.39,1.86-19.52,17.89-19.52,26.02s21.51,36.25,19.59,37.87-22.84-21.14-28.65-19.98c-5.81,1.16-22.07,20.07-25.33,20.07s9.99-23.78,6.04-23.55c-3.95.23-31.6,23.55-34.16,23.55s14.41-27.73,9.53-27.73S2.43,84.05.1,81.64c-2.32-2.41,35.08-35.4,35.08-42.6C35.19,28.81,3.12,11.85,4.29,7.9Z"
        fill="whitesmoke" />
</svg>